<?xml version="1.0" encoding="utf-8"?>
<svg baseProfile="tiny" height="689" stroke-linecap="round" stroke-linejoin="round" version="1.2" viewBox="0 0 800 689" width="800" xmlns="http://www.w3.org/2000/svg">
<g id="test22">
<path d="M 311.87 128.43 312.78 132.97 312.04 134.49 305.82 132.97 305.81 132.97 305.79 132.19 311.87 128.43 Z" fill="#ffffff" id="동대문구" stroke="#3884FF" stroke-width="0.5"/>
<path d="M 315.66 132.73 312.78 132.97 311.87 128.43 311.74 127.44 316.25 126.81 315.66 132.73 Z" fill="#ffffff" id="중랑구" stroke="#3884FF" stroke-width="0.5"/>
<path d="M 300.84 124.79 309.16 126.32 311.74 127.44 311.87 128.43 305.79 132.19 299.72 125.38 300.84 124.79 Z" fill="#ffffff" id="성북구" stroke="#3884FF" stroke-width="0.5"/>
<path d="M 303.95 118.68 308.25 125.52 309.16 126.32 300.84 124.79 301.86 119.29 303.95 118.68 Z" fill="#ffffff" id="강북구" stroke="#3884FF" stroke-width="0.5"/>
<path d="M 309.42 118.5 308.25 125.52 303.95 118.68 304.8 116.52 309.42 118.5 Z" fill="#ffffff" id="도봉구" stroke="#3884FF" stroke-width="0.5"/>
<path d="M 316.98 124.02 316.25 126.81 311.74 127.44 309.16 126.32 308.25 125.52 309.42 118.5 313.15 117.19 316.98 124.02 Z" fill="#ffffff" id="노원구" stroke="#3884FF" stroke-width="0.5"/>
<path d="M 297.74 125.63 296.54 128.05 290.41 132.45 287.87 130.57 291.71 123.77 297.74 125.63 Z" fill="#ffffff" id="은평구" stroke="#3884FF" stroke-width="0.5"/>
<path d="M 298.62 133.74 297.98 134.6 290.41 132.45 296.54 128.05 298.62 133.74 Z" fill="#ffffff" id="서대문구" stroke="#3884FF" stroke-width="0.5"/>
<path d="M 290.41 132.45 297.98 134.6 298.07 135.55 295.81 137.81 287.67 134.95 284.26 132.98 287.87 130.57 290.41 132.45 Z" fill="#ffffff" id="마포구" stroke="#3884FF" stroke-width="0.5"/>
<path d="M 287.69 135.98 287.5 139.83 280.59 141.04 280.26 136.93 287.69 135.98 Z" fill="#ffffff" id="양천구" stroke="#3884FF" stroke-width="0.5"/>
<path d="M 284.26 132.98 287.67 134.95 287.69 135.98 280.26 136.93 273.16 135.21 276.65 131.74 277.78 128.76 284.26 132.98 Z" fill="#ffffff" id="강서구" stroke="#3884FF" stroke-width="0.5"/>
<path d="M 290.55 144 290.02 144.75 286.92 143.96 281.65 144.99 280.11 143.28 280.29 141.3 280.59 141.04 287.5 139.83 290.48 143.98 290.5 143.99 290.5 143.99 290.5 144 290.5 144 290.55 144 Z" fill="#ffffff" id="구로구" stroke="#3884FF" stroke-width="0.5"/>
<path d="M 290.02 144.75 293.75 148.42 290.02 149.88 286.92 143.96 290.02 144.75 Z" fill="#ffffff" id="금천구" stroke="#3884FF" stroke-width="0.5"/>
<path d="M 295.81 137.81 296.48 139.88 290.55 144 290.55 144 290.5 144 290.5 144 290.5 143.99 290.5 143.99 290.48 143.98 287.5 139.83 287.69 135.98 287.67 134.95 295.81 137.81 Z" fill="#ffffff" id="영등포구" stroke="#3884FF" stroke-width="0.5"/>
<path d="M 296.48 139.88 300.36 141.27 300.52 145.08 290.55 144 296.48 139.88 Z" fill="#ffffff" id="동작구" stroke="#3884FF" stroke-width="0.5"/>
<path d="M 300.52 145.08 301.4 147.41 298.25 149.62 296.26 149.89 293.75 148.42 290.02 144.75 290.55 144 290.55 144 300.52 145.08 Z" fill="#ffffff" id="관악구" stroke="#3884FF" stroke-width="0.5"/>
<path d="M 303.94 138.85 307.18 144.09 314.94 147.64 308.86 150.9 301.4 147.41 300.52 145.08 300.36 141.27 303.94 138.85 Z" fill="#ffffff" id="서초구" stroke="#3884FF" stroke-width="0.5"/>
<path d="M 309.99 138.5 311.42 138.98 318.62 146.35 314.94 147.64 307.18 144.09 303.94 138.85 305.06 137.78 309.99 138.5 Z" fill="#ffffff" id="강남구" stroke="#3884FF" stroke-width="0.5"/>
<path d="M 321.27 139.96 321.07 145.41 318.62 146.35 311.42 138.98 316.72 136.62 321.27 139.96 Z" fill="#ffffff" id="송파구" stroke="#3884FF" stroke-width="0.5"/>
<path d="M 321.27 139.96 316.72 136.62 317.48 134.89 324.26 132.07 321.27 139.96 Z" fill="#ffffff" id="강동구" stroke="#3884FF" stroke-width="0.5"/>
<path d="M 562.41 445.9 560.17 447.42 559.81 445.73 559.82 445.74 559.82 445.74 559.82 445.74 560.31 444.9 562.41 445.9 Z" fill="#ffffff" id="중구" stroke="#3884FF" stroke-width="0.5"/>
<path d="M 558.37 442.11 560.08 442.34 560.31 444.9 559.82 445.74 559.82 445.74 559.82 445.74 559.81 445.73 560.17 447.42 557.39 449.61 556.79 443.91 558.37 442.11 Z" fill="#ffffff" id="서구" stroke="#3884FF" stroke-width="0.5"/>
<path d="M 565.02 441.61 565.14 443.19 562.41 445.9 560.31 444.9 560.08 442.34 565.02 441.61 Z" fill="#ffffff" id="동구" stroke="#3884FF" stroke-width="0.5"/>
<path d="M 564.83 446.44 566.9 448.8 565.01 451.71 560.77 447.8 564.83 446.44 Z" fill="#ffffff" id="영도구" stroke="#3884FF" stroke-width="0.5"/>
<path d="M 562.42 434.24 562.95 434.87 567.34 439.48 565.02 441.61 560.08 442.34 558.37 442.11 559.5 435.76 562.42 434.24 Z" fill="#ffffff" id="부산진구" stroke="#3884FF" stroke-width="0.5"/>
<path d="M 570.82 432.88 571.49 435.95 571.44 436.25 562.95 434.87 562.42 434.24 564.67 430.89 570.82 432.88 Z" fill="#ffffff" id="동래구" stroke="#3884FF" stroke-width="0.5"/>
<path d="M 571.04 442.26 565.14 443.19 565.02 441.61 567.34 439.48 568.94 439.08 571.04 442.26 Z" fill="#ffffff" id="남구" stroke="#3884FF" stroke-width="0.5"/>
<path d="M 562.85 424.75 564.67 430.89 562.42 434.24 559.5 435.76 555.26 433.98 556.41 429.59 558.53 424.8 562.85 424.75 Z" fill="#ffffff" id="북구" stroke="#3884FF" stroke-width="0.5"/>
<path d="M 583.29 436.46 573.45 439.09 571.49 435.95 570.82 432.88 575.18 427.7 577.15 433.36 583.29 436.46 Z" fill="#ffffff" id="해운대구" stroke="#3884FF" stroke-width="0.5"/>
<path d="M 556.79 443.91 557.39 449.61 553.01 454.87 548.6 445.6 551.7 442.22 556.79 443.91 Z" fill="#ffffff" id="사하구" stroke="#3884FF" stroke-width="0.5"/>
<path d="M 570.61 420.89 575.18 427.7 570.82 432.88 564.67 430.89 562.85 424.75 570.61 420.89 Z" fill="#ffffff" id="금정구" stroke="#3884FF" stroke-width="0.5"/>
<path d="M 555.26 433.98 551.7 442.22 548.6 445.6 543.52 449.55 534.02 447.33 536.27 443.94 530.62 439.61 536.88 439.5 542.26 432.39 542.35 432.34 556.41 429.59 555.26 433.98 Z" fill="#ffffff" id="강서구" stroke="#3884FF" stroke-width="0.5"/>
<path d="M 571.44 436.25 568.94 439.08 567.34 439.48 562.95 434.87 571.44 436.25 Z" fill="#ffffff" id="연제구" stroke="#3884FF" stroke-width="0.5"/>
<path d="M 571.49 435.95 573.45 439.09 571.04 442.26 568.94 439.08 571.44 436.25 571.49 435.95 Z" fill="#ffffff" id="수영구" stroke="#3884FF" stroke-width="0.5"/>
<path d="M 559.5 435.76 558.37 442.11 556.79 443.91 551.7 442.22 555.26 433.98 559.5 435.76 Z" fill="#ffffff" id="사상구" stroke="#3884FF" stroke-width="0.5"/>
<path d="M 595.53 417.68 590.33 419.18 588.87 428.43 583.29 436.46 577.15 433.36 575.18 427.7 570.61 420.89 573.92 414.75 579.45 414.9 582.37 410.32 590.26 410.6 595.53 417.68 Z" fill="#ffffff" id="기장군" stroke="#3884FF" stroke-width="0.5"/>
<path d="M 507.37 348.46 507.89 349.33 507.08 351.01 502.78 350.35 502.75 350.03 503.49 347.93 507.37 348.46 Z" fill="#ffffff" id="중구" stroke="#3884FF" stroke-width="0.5"/>
<path d="M 523.13 333.46 523.51 341.71 526.32 349.59 521.98 350.65 512.34 348.06 507.89 349.33 507.37 348.46 510.1 343.77 506.45 334.13 511.2 331.24 518.17 330.53 523.13 333.46 Z" fill="#ffffff" id="동구" stroke="#3884FF" stroke-width="0.5"/>
<path d="M 503.49 347.93 502.75 350.03 495.76 349.16 496.67 346.76 503.49 347.93 Z" fill="#ffffff" id="서구" stroke="#3884FF" stroke-width="0.5"/>
<path d="M 507.08 351.01 504.94 356.8 504.48 357 502.78 350.35 507.08 351.01 Z" fill="#ffffff" id="남구" stroke="#3884FF" stroke-width="0.5"/>
<path d="M 507.37 348.46 503.49 347.93 496.67 346.76 493.94 346.37 499.21 336.86 506.45 334.13 510.1 343.77 507.37 348.46 Z" fill="#ffffff" id="북구" stroke="#3884FF" stroke-width="0.5"/>
<path d="M 521.98 350.65 520.76 357.31 516.5 359.23 504.94 356.8 507.08 351.01 507.89 349.33 512.34 348.06 521.98 350.65 Z" fill="#ffffff" id="수성구" stroke="#3884FF" stroke-width="0.5"/>
<path d="M 495.76 349.16 502.75 350.03 502.78 350.35 504.48 357 500.29 361.41 491.13 356.01 489.38 352.95 495.76 349.16 Z" fill="#ffffff" id="달서구" stroke="#3884FF" stroke-width="0.5"/>
<path d="M 504.48 357 504.94 356.8 516.5 359.23 517.92 365.13 509.14 370.25 503.55 365.77 496.87 369.06 497.12 372.83 494.12 378.35 486.53 378.5 477.04 381.99 484.67 367.43 478.51 363.24 483.27 356.79 491.13 356.01 500.29 361.41 504.48 357 Z M 493.94 346.37 496.67 346.76 495.76 349.16 489.38 352.95 478.92 351.46 480.5 345.42 487.51 339.8 493.94 346.37 Z" fill="#ffffff" fill-rule="evenodd" id="달성군" stroke="#3884FF" stroke-width="0.5"/>
<path d="M 541.99 307.39 543.49 310.59 542.83 314.48 531.24 321.75 522.12 320.74 518.17 330.53 511.2 331.24 509.55 322.4 502.08 324.71 501.31 318.47 497.98 307.83 490.59 302.77 482.87 301.36 481.95 296.11 486.6 291.6 511.18 299.88 518.26 306.91 530.97 308.35 534.8 304.87 541.99 307.39 Z" fill="#ffffff" id="군위군" stroke="#3884FF" stroke-width="0.5"/>
<path d="M 254.19 144.19 257.47 146.13 257.33 146.58 257.3 146.59 256.16 151 254.19 144.19 Z M 239.71 138.2 249.81 143.4 240.16 146.45 232.12 152.12 220.97 146.24 228.92 142.5 235.71 142.25 239.71 138.2 Z" fill="#ffffff" fill-rule="evenodd" id="중구" stroke="#3884FF" stroke-width="0.5"/>
<path d="M 257.14 142.66 261.49 145.2 257.47 146.13 254.19 144.19 257.14 142.66 Z" fill="#ffffff" id="동구" stroke="#3884FF" stroke-width="0.5"/>
<path d="M 262.78 156.61 258.26 160.51 253.31 156.43 256.33 150.9 265.06 149.8 262.78 156.61 Z" fill="#ffffff" id="연수구" stroke="#3884FF" stroke-width="0.5"/>
<path d="M 273.35 145.69 274.68 145.68 271.65 152.58 262.78 156.61 265.06 149.8 262.94 145.71 263 145.62 273.35 145.69 Z" fill="#ffffff" id="남동구" stroke="#3884FF" stroke-width="0.5"/>
<path d="M 272.41 139.04 272.39 139.81 270.15 143.57 273.35 145.69 263 145.62 263.38 139.11 272.41 139.04 Z" fill="#ffffff" id="부평구" stroke="#3884FF" stroke-width="0.5"/>
<path d="M 276.65 131.74 273.16 135.21 272.41 139.04 263.38 139.11 267.98 130.43 276.65 131.74 Z" fill="#ffffff" id="계양구" stroke="#3884FF" stroke-width="0.5"/>
<path d="M 267.98 130.43 263.38 139.11 263 145.62 262.94 145.71 261.49 145.2 257.14 142.66 248.86 130.88 261.25 125.1 267.98 130.43 Z" fill="#ffffff" id="서구" stroke="#3884FF" stroke-width="0.5"/>
<path d="M 261.49 145.2 262.94 145.71 265.06 149.8 256.33 150.9 256.16 151 257.3 146.59 257.33 146.58 257.47 146.13 261.49 145.2 Z" fill="#ffffff" id="미추홀구" stroke="#3884FF" stroke-width="0.5"/>
<path d="M 216.67 110.08 216.49 115.23 223.99 118.95 218.87 123.38 211.73 116.33 216.67 110.08 Z M 209.45 101.75 212.79 108.71 203.33 106.78 209.45 101.75 Z M 230.44 100.14 239.77 105.91 242.72 110.69 241.51 119.39 244.91 126.94 240.02 129.86 227 130.11 224.82 116.71 220.97 115.83 220.24 105.31 230.44 100.14 Z" fill="#ffffff" fill-rule="evenodd" id="강화군" stroke="#3884FF" stroke-width="0.5"/>
<path d="M 189.1 170.76 196.75 176.06 190.67 179.01 189.1 170.76 Z M 9.15 81.08 10.53 88.17 2.82 88.27 1 84.07 9.15 81.08 Z" fill="#ffffff" fill-rule="evenodd" id="옹진군" stroke="#3884FF" stroke-width="0.5"/>
<path d="M 303.39 444.19 301.44 447.51 292.61 447.94 291.38 440.62 291.06 440.34 297.16 440.24 303.39 444.19 Z" fill="#ffffff" id="동구" stroke="#3884FF" stroke-width="0.5"/>
<path d="M 291.06 440.34 291.38 440.62 288.66 444.6 277.77 447.7 282.37 436.91 291.06 440.34 Z" fill="#ffffff" id="서구" stroke="#3884FF" stroke-width="0.5"/>
<path d="M 291.38 440.62 292.61 447.94 289.13 449.67 277.92 452.92 273.81 450.65 277.77 447.7 288.66 444.6 291.38 440.62 Z" fill="#ffffff" id="남구" stroke="#3884FF" stroke-width="0.5"/>
<path d="M 303.95 442.58 303.39 444.19 297.16 440.24 291.06 440.34 282.37 436.91 281.9 430.52 287.56 427.63 294.12 427.72 299.31 436.08 305.68 437.81 303.95 442.58 Z" fill="#ffffff" id="북구" stroke="#3884FF" stroke-width="0.5"/>
<path d="M 281.9 430.52 282.37 436.91 277.77 447.7 273.81 450.65 269.38 445.82 259.06 444.98 258.81 435.13 265.08 433.21 269.36 427.72 276.85 431.66 281.9 430.52 Z" fill="#ffffff" id="광산구" stroke="#3884FF" stroke-width="0.5"/>
<path d="M 365.38 276.79 368.18 278.93 373.16 282.43 366.51 289.4 365.4 302.36 356.48 306.16 359.02 302.33 355.54 289.29 361.75 286.68 360.67 281.78 365.38 276.79 Z" fill="#ffffff" id="동구" stroke="#3884FF" stroke-width="0.5"/>
<path d="M 355.54 289.29 359.02 302.33 356.48 306.16 350.14 298.02 354.14 288.18 355.54 289.29 Z" fill="#ffffff" id="중구" stroke="#3884FF" stroke-width="0.5"/>
<path d="M 352.76 285.42 354.14 288.18 350.14 298.02 349.1 304.78 344.97 309.21 338.58 301.4 339.92 299.03 347.18 288.17 352.76 285.42 Z" fill="#ffffff" id="서구" stroke="#3884FF" stroke-width="0.5"/>
<path d="M 353.91 274.67 352.76 285.42 347.18 288.17 339.92 299.03 335.71 297.53 335.83 291.02 338.67 279.93 344.37 278.95 348.32 271.31 353.15 270.14 353.91 274.67 Z" fill="#ffffff" id="유성구" stroke="#3884FF" stroke-width="0.5"/>
<path d="M 365.38 276.79 360.67 281.78 361.75 286.68 355.54 289.29 354.14 288.18 352.76 285.42 353.91 274.67 360.16 275.53 363.86 271.99 365.38 276.79 Z" fill="#ffffff" id="대덕구" stroke="#3884FF" stroke-width="0.5"/>
<path d="M 601.03 389.82 590.55 388.85 593.7 384.23 601.07 383.97 601.03 389.82 Z" fill="#ffffff" id="중구" stroke="#3884FF" stroke-width="0.5"/>
<path d="M 601.03 389.82 604.65 391.25 606.21 397.66 598.87 397.91 595.03 396.7 590.55 388.85 601.03 389.82 Z" fill="#ffffff" id="남구" stroke="#3884FF" stroke-width="0.5"/>
<path d="M 606.04 392.6 614.33 386.98 612.49 397.95 606.04 392.6 Z" fill="#ffffff" id="동구" stroke="#3884FF" stroke-width="0.5"/>
<path d="M 613.94 376.89 614.33 386.98 606.04 392.6 604.65 391.25 601.03 389.82 601.07 383.97 593.7 384.23 594.46 377.85 601.72 373.29 613.94 376.89 Z" fill="#ffffff" id="북구" stroke="#3884FF" stroke-width="0.5"/>
<path d="M 594.46 377.85 593.7 384.23 590.55 388.85 595.03 396.7 598.87 397.91 602.89 408.56 595.53 417.68 590.26 410.6 582.37 410.32 581.82 403.93 574.55 402.61 570.37 396.69 556.13 392.5 559.22 385.43 557.17 380.8 562.78 376.96 569.74 369.91 582.91 367.99 590.08 371.51 594.46 377.85 Z" fill="#ffffff" id="울주군" stroke="#3884FF" stroke-width="0.5"/>
<path d="M 339.07 244.87 341.76 256.13 350.74 260.47 353.87 263.85 353.15 270.14 348.32 271.31 344.37 278.95 338.67 279.93 328.42 276.46 324.87 269.19 327.49 258.85 321.95 253.88 319.91 242.83 327.9 240.11 339.07 244.87 Z" fill="#ffffff" id="세종시" stroke="#3884FF" stroke-width="0.5"/>
<path d="M 307.89 164.84 307.18 168.34 300.1 169.19 297.87 167.2 305.16 161.03 307.89 164.84 Z" fill="#ffffff" id="수원시 장안구" stroke="#3884FF" stroke-width="0.5"/>
<path d="M 297.87 167.2 300.1 169.19 307.5 173.02 307.6 175.3 299.02 176.42 293.61 170.19 294.77 167.81 294.75 167.8 294.65 167.75 294.64 167.74 294.64 167.74 294.6 167.68 294.33 167.11 297.87 167.2 Z" fill="#ffffff" id="수원시 권선구" stroke="#3884FF" stroke-width="0.5"/>
<path d="M 307.5 173.02 300.1 169.19 307.18 168.34 307.5 173.02 Z" fill="#ffffff" id="수원시 팔달구" stroke="#3884FF" stroke-width="0.5"/>
<path d="M 314.23 167.72 311.34 175.09 307.6 175.3 307.5 173.02 307.18 168.34 307.89 164.84 314.23 167.72 Z" fill="#ffffff" id="수원시 영통구" stroke="#3884FF" stroke-width="0.5"/>
<path d="M 321.07 145.41 325.15 145.66 317.98 152.81 308.34 154.31 308.19 152.83 308.86 150.9 314.94 147.64 318.62 146.35 321.07 145.41 Z" fill="#ffffff" id="성남시 수정구" stroke="#3884FF" stroke-width="0.5"/>
<path d="M 324.97 154.07 317.98 152.81 325.15 145.66 325.55 145.3 324.97 154.07 Z" fill="#ffffff" id="성남시 중원구" stroke="#3884FF" stroke-width="0.5"/>
<path d="M 324.97 154.07 320.35 162.45 306.39 158.36 308.34 154.31 317.98 152.81 324.97 154.07 Z" fill="#ffffff" id="성남시 분당구" stroke="#3884FF" stroke-width="0.5"/>
<path d="M 316.27 106.5 321.41 109.66 313.15 117.19 309.42 118.5 304.8 116.52 303.06 108.9 316.27 106.5 Z" fill="#ffffff" id="의정부시" stroke="#3884FF" stroke-width="0.5"/>
<path d="M 296.26 149.89 295.44 157.51 289.69 159.94 287.77 157.66 287.22 154.55 290.02 149.88 293.75 148.42 296.26 149.89 Z" fill="#ffffff" id="안양시 만안구" stroke="#3884FF" stroke-width="0.5"/>
<path d="M 300.61 154.71 298.03 159.67 295.44 157.51 296.26 149.89 298.25 149.62 300.61 154.71 Z" fill="#ffffff" id="안양시 동안구" stroke="#3884FF" stroke-width="0.5"/>
<path d="M 280.29 141.3 280.11 143.28 270.15 143.57 272.39 139.81 280.29 141.3 Z" fill="#ffffff" id="부천시 원미구" stroke="#3884FF" stroke-width="0.5"/>
<path d="M 281.65 144.99 280.76 147.25 274.68 145.68 273.35 145.69 270.15 143.57 280.11 143.28 281.65 144.99 Z" fill="#ffffff" id="부천시 소사구" stroke="#3884FF" stroke-width="0.5"/>
<path d="M 280.26 136.93 280.59 141.04 280.29 141.3 272.39 139.81 272.41 139.04 273.16 135.21 280.26 136.93 Z" fill="#ffffff" id="부천시 오정구" stroke="#3884FF" stroke-width="0.5"/>
<path d="M 286.92 143.96 290.02 149.88 287.22 154.55 280.76 147.25 281.65 144.99 286.92 143.96 Z" fill="#ffffff" id="광명시" stroke="#3884FF" stroke-width="0.5"/>
<path d="M 318.46 187.24 318.56 194.13 321.26 204.42 318.11 209.36 312.25 213.39 301.01 214.17 291.37 218.09 283.75 212.39 277.15 203.8 284.41 202.84 288.28 197.12 301.3 196.77 303.03 189.34 307.38 188.26 315.93 187.32 318.46 187.24 Z" fill="#ffffff" id="평택시" stroke="#3884FF" stroke-width="0.5"/>
<path d="M 314.43 82.21 321.33 94.42 316.67 96.34 310.95 95.2 304.08 87.72 309.66 81.01 314.43 82.21 Z" fill="#ffffff" id="동두천시" stroke="#3884FF" stroke-width="0.5"/>
<path d="M 289.69 159.94 286.88 164.82 293.99 166.58 294.33 167.11 294.6 167.68 294.64 167.74 294.64 167.74 294.65 167.75 294.75 167.8 294.77 167.81 293.61 170.19 285.47 170.79 283.03 171.63 282.92 171.6 279.58 167.75 282.72 159.52 287.77 157.66 289.69 159.94 Z" fill="#ffffff" id="안산시 상록구" stroke="#3884FF" stroke-width="0.5"/>
<path d="M 254.11 165.75 259 177.07 248.18 180.29 245.71 170.79 253.88 165.66 254.11 165.75 Z M 282.72 159.52 279.58 167.75 266.98 166.45 272.45 162.27 282.72 159.52 Z" fill="#ffffff" fill-rule="evenodd" id="안산시 단원구" stroke="#3884FF" stroke-width="0.5"/>
<path d="M 293.84 110.55 291.57 120.68 301.86 119.29 300.84 124.79 299.72 125.38 297.74 125.63 291.71 123.77 287.87 130.57 284.26 132.98 277.78 128.76 272.31 125.63 276.69 125.82 283.68 117.95 282.12 113.22 288.69 113.79 293.84 110.55 Z" fill="#ffffff" id="고양시 덕양구" stroke="#3884FF" stroke-width="0.5"/>
<path d="M 282.12 113.22 283.68 117.95 276.69 125.82 272.31 125.63 268.87 123.37 274.07 116.21 282.12 113.22 Z" fill="#ffffff" id="고양시 일산동구" stroke="#3884FF" stroke-width="0.5"/>
<path d="M 274.07 116.21 268.87 123.37 261.44 116.66 274.07 116.21 Z" fill="#ffffff" id="고양시 일산서구" stroke="#3884FF" stroke-width="0.5"/>
<path d="M 308.86 150.9 308.19 152.83 300.61 154.71 298.25 149.62 301.4 147.41 308.86 150.9 Z" fill="#ffffff" id="과천시" stroke="#3884FF" stroke-width="0.5"/>
<path d="M 324.51 131.81 324.26 132.07 317.48 134.89 315.66 132.73 316.25 126.81 316.98 124.02 320.8 123.56 324.51 131.81 Z" fill="#ffffff" id="구리시" stroke="#3884FF" stroke-width="0.5"/>
<path d="M 336.74 106.56 342.95 107.94 351.05 119.99 349.99 123.35 341.8 139.62 339.13 140.27 328.52 130.78 324.51 131.81 320.8 123.56 316.98 124.02 313.15 117.19 321.41 109.66 331.84 109.78 336.74 106.56 Z" fill="#ffffff" id="남양주시" stroke="#3884FF" stroke-width="0.5"/>
<path d="M 315.93 187.32 307.38 188.26 303.83 181.16 311.03 180.32 315.93 187.32 Z" fill="#ffffff" id="오산시" stroke="#3884FF" stroke-width="0.5"/>
<path d="M 280.76 147.25 287.22 154.55 287.77 157.66 282.72 159.52 272.45 162.27 266.98 166.45 261.13 163.83 254.11 165.75 253.88 165.66 263.53 163.02 271.65 152.58 274.68 145.68 280.76 147.25 Z" fill="#ffffff" id="시흥시" stroke="#3884FF" stroke-width="0.5"/>
<path d="M 295.44 157.51 298.03 159.67 293.99 166.58 286.88 164.82 289.69 159.94 295.44 157.51 Z" fill="#ffffff" id="군포시" stroke="#3884FF" stroke-width="0.5"/>
<path d="M 308.34 154.31 306.39 158.36 305.16 161.03 297.87 167.2 294.33 167.11 293.99 166.58 298.03 159.67 300.61 154.71 308.19 152.83 308.34 154.31 Z" fill="#ffffff" id="의왕시" stroke="#3884FF" stroke-width="0.5"/>
<path d="M 339.13 140.27 333.88 145.07 325.55 145.3 325.15 145.66 321.07 145.41 321.27 139.96 324.26 132.07 324.51 131.81 328.52 130.78 339.13 140.27 Z" fill="#ffffff" id="하남시" stroke="#3884FF" stroke-width="0.5"/>
<path d="M 345.86 171.24 344.76 177.4 357.13 186.95 352.79 192.06 334.7 189.96 327.61 194.25 318.56 194.13 318.46 187.24 323.34 181.31 321.98 177.66 325.34 169.75 320.31 164.42 320.91 162.85 331.92 159.99 338.81 162.03 338.61 171.48 345.86 171.24 Z" fill="#ffffff" id="용인시 처인구" stroke="#3884FF" stroke-width="0.5"/>
<path d="M 320.31 164.42 325.34 169.75 321.98 177.66 314.14 178.09 311.34 175.09 314.23 167.72 320.31 164.42 Z" fill="#ffffff" id="용인시 기흥구" stroke="#3884FF" stroke-width="0.5"/>
<path d="M 320.35 162.45 320.91 162.85 320.31 164.42 314.23 167.72 307.89 164.84 305.16 161.03 306.39 158.36 320.35 162.45 Z" fill="#ffffff" id="용인시 수지구" stroke="#3884FF" stroke-width="0.5"/>
<path d="M 299.36 85.96 295.99 95.58 291.72 98.86 293.84 110.55 288.69 113.79 282.12 113.22 274.07 116.21 261.44 116.66 260 106.46 263.66 95.46 261.07 84.3 276.19 80.11 280.08 84.01 289.59 79.25 295 81.01 301.08 77.44 304.38 81.47 299.36 85.96 Z" fill="#ffffff" id="파주시" stroke="#3884FF" stroke-width="0.5"/>
<path d="M 382.63 185.87 383.08 193.34 370.51 198.58 364.69 198.68 368.38 194.37 366.21 189.95 357.13 186.95 344.76 177.4 345.86 171.24 346.03 169.01 359.04 160.09 362.59 159.66 372.17 166.08 370.01 170.78 369.75 183.55 378.78 181.67 382.63 185.87 Z" fill="#ffffff" id="이천시" stroke="#3884FF" stroke-width="0.5"/>
<path d="M 357.13 186.95 366.21 189.95 368.38 194.37 364.69 198.68 359.62 204.21 352.91 205.8 339.4 219.08 328.41 211.69 318.11 209.36 321.26 204.42 318.56 194.13 327.61 194.25 334.7 189.96 352.79 192.06 357.13 186.95 Z" fill="#ffffff" id="안성시" stroke="#3884FF" stroke-width="0.5"/>
<path d="M 260 106.46 261.44 116.66 268.87 123.37 272.31 125.63 277.78 128.76 276.65 131.74 267.98 130.43 261.25 125.1 248.86 130.88 242.89 120.09 243.25 110.35 260 106.46 Z" fill="#ffffff" id="김포시" stroke="#3884FF" stroke-width="0.5"/>
<path d="M 282.92 171.6 283.03 171.63 285.47 170.79 293.61 170.19 299.02 176.42 307.6 175.3 311.34 175.09 314.14 178.09 321.98 177.66 323.34 181.31 318.46 187.24 315.93 187.32 311.03 180.32 303.83 181.16 307.38 188.26 303.03 189.34 301.3 196.77 288.28 197.12 284.41 202.84 277.15 203.8 262.79 191.4 258.4 182.03 259.57 169.3 278.62 168.31 282.92 171.6 Z" fill="#ffffff" id="화성시" stroke="#3884FF" stroke-width="0.5"/>
<path d="M 353.68 152.08 359.04 160.09 346.03 169.01 345.86 171.24 338.61 171.48 338.81 162.03 331.92 159.99 320.91 162.85 320.35 162.45 324.97 154.07 325.55 145.3 333.88 145.07 339.13 140.27 341.8 139.62 349.07 138.21 351.95 142.45 350.13 149.09 353.68 152.08 Z" fill="#ffffff" id="광주시" stroke="#3884FF" stroke-width="0.5"/>
<path d="M 304.08 87.72 310.95 95.2 316.67 96.34 316.27 106.5 303.06 108.9 304.8 116.52 303.95 118.68 301.86 119.29 291.57 120.68 293.84 110.55 291.72 98.86 295.99 95.58 299.36 85.96 304.08 87.72 Z" fill="#ffffff" id="양주시" stroke="#3884FF" stroke-width="0.5"/>
<path d="M 357.52 63.96 359.51 72.1 351.68 85.81 344.58 88.52 339.25 95.43 336.74 106.56 331.84 109.78 321.41 109.66 316.27 106.5 316.67 96.34 321.33 94.42 314.43 82.21 321.26 79.57 317.06 72.11 326.82 70.41 324.69 63.19 325.77 54.97 330.9 61.04 343.57 66.58 350.93 63.57 357.52 63.96 Z" fill="#ffffff" id="포천시" stroke="#3884FF" stroke-width="0.5"/>
<path d="M 399.31 158.98 400.39 166.29 397.42 178.46 391.16 187.76 382.63 185.87 378.78 181.67 369.75 183.55 370.01 170.78 372.17 166.08 362.59 159.66 359.04 160.09 353.68 152.08 356.54 149.79 370.99 153.31 389.59 152.98 391.9 158.09 399.31 158.98 Z" fill="#ffffff" id="여주시" stroke="#3884FF" stroke-width="0.5"/>
<path d="M 325.77 54.97 324.69 63.19 326.82 70.41 317.06 72.11 321.26 79.57 314.43 82.21 309.66 81.01 304.08 87.72 299.36 85.96 304.38 81.47 301.08 77.44 295 81.01 289.59 79.25 280.08 84.01 276.19 80.11 282.62 74.43 284.6 66.29 290.73 61.14 298.54 60.87 300.76 49.82 314.93 42.87 317.27 48.53 323.58 48.32 325.77 54.97 Z" fill="#ffffff" id="연천군" stroke="#3884FF" stroke-width="0.5"/>
<path d="M 371.4 78.53 372.36 82.87 379.35 84.32 381.2 90.54 370.08 98.96 369.17 105.41 373.95 113.07 373.88 125.78 374.16 130.97 362.89 132.25 362.58 126.5 357.16 120.51 349.99 123.35 351.05 119.99 342.95 107.94 336.74 106.56 339.25 95.43 344.58 88.52 351.68 85.81 359.51 72.1 360.95 76.45 371.4 78.53 Z" fill="#ffffff" id="가평군" stroke="#3884FF" stroke-width="0.5"/>
<path d="M 373.88 125.78 380.19 123.07 392.74 131.13 398.72 130.48 410.54 135.46 399.39 141.67 404.5 149.89 399.31 158.98 391.9 158.09 389.59 152.98 370.99 153.31 356.54 149.79 353.68 152.08 350.13 149.09 351.95 142.45 349.07 138.21 341.8 139.62 349.99 123.35 357.16 120.51 362.58 126.5 362.89 132.25 374.16 130.97 373.88 125.78 Z" fill="#ffffff" id="양평군" stroke="#3884FF" stroke-width="0.5"/>
<path d="M 417.47 72.18 433.59 76.75 428.76 79.74 429.21 86.07 422.59 97.94 414.69 96.3 408.53 98.46 408.04 111.51 397.64 111.38 388.92 117.32 378.55 116.3 373.95 113.07 369.17 105.41 370.08 98.96 381.2 90.54 379.35 84.32 372.36 82.87 371.4 78.53 378.64 68.46 385.48 75.18 396.57 73.74 402.94 79.33 417.47 72.18 Z" fill="#ffffff" id="춘천시" stroke="#3884FF" stroke-width="0.5"/>
<path d="M 443.62 167.65 444.51 170.99 457.02 169 456.22 174 450.66 178.51 434.56 181.56 432.27 174.56 427.28 172.79 419.88 177.02 420.48 184.57 403.11 187.38 397.42 178.46 400.39 166.29 399.31 158.98 404.5 149.89 412.56 151.58 414.21 146.3 430.17 147.58 440.53 151.4 439.58 158.13 434.81 160.39 436.43 166.42 443.62 167.65 Z" fill="#ffffff" id="원주시" stroke="#3884FF" stroke-width="0.5"/>
<path d="M 566.33 128.78 562.8 136.18 553.44 137.82 548.16 137.06 540.76 130.71 537.54 140.2 516.05 133.23 523.23 128.25 526.99 120.07 524.29 111.44 519.85 108.06 510.46 106.38 503.83 101.29 504.5 96.13 511.48 91.95 532.69 89.08 541.76 100.55 563.88 119.83 566.33 128.78 Z" fill="#ffffff" id="강릉시" stroke="#3884FF" stroke-width="0.5"/>
<path d="M 577.24 145.17 573.72 148.05 562.94 147.57 558.12 150.24 551.44 148.88 555.5 144.16 553.44 137.82 562.8 136.18 566.33 128.78 571.66 132.41 572.45 139.71 577.24 145.17 Z" fill="#ffffff" id="동해시" stroke="#3884FF" stroke-width="0.5"/>
<path d="M 568.97 192.86 564.53 197.22 547.08 193.9 545.43 196.92 540.37 191.88 544.19 186.92 545.13 178.1 549.62 166.79 552.85 163.25 559.12 167.09 555.96 175.72 558.26 181.91 565.94 184.02 568.97 192.86 Z" fill="#ffffff" id="태백시" stroke="#3884FF" stroke-width="0.5"/>
<path d="M 507.13 58.13 488.86 63.47 483.4 56.03 486 52.74 493.23 52.93 504.11 49.3 507.13 58.13 Z" fill="#ffffff" id="속초시" stroke="#3884FF" stroke-width="0.5"/>
<path d="M 577.24 145.17 581.9 152.77 589.03 157.53 591.16 164.77 601.03 174.1 602.97 187.05 591.26 190.81 580.37 200.3 568.97 192.86 565.94 184.02 558.26 181.91 555.96 175.72 559.12 167.09 552.85 163.25 549.62 166.79 545.13 178.1 537.26 162.27 540.4 154.76 547.62 148.63 551.44 148.88 558.12 150.24 562.94 147.57 573.72 148.05 577.24 145.17 Z" fill="#ffffff" id="삼척시" stroke="#3884FF" stroke-width="0.5"/>
<path d="M 490.97 92.19 498.37 92.43 504.5 96.13 503.83 101.29 496.37 108.57 496.15 112.93 487.53 113.04 485.11 117.67 468.49 117.82 462.08 125.93 444.91 119.42 433.83 126.52 427.2 125.36 416.2 129.76 410.54 135.46 398.72 130.48 392.74 131.13 380.19 123.07 373.88 125.78 373.95 113.07 378.55 116.3 388.92 117.32 397.64 111.38 408.04 111.51 408.53 98.46 414.69 96.3 422.59 97.94 429.21 86.07 433.66 85.66 440.32 91.09 451.96 93.22 451.26 97.5 456.33 102.39 467.09 95.14 473.87 100.67 483.36 93.48 490.97 92.19 Z" fill="#ffffff" id="홍천군" stroke="#3884FF" stroke-width="0.5"/>
<path d="M 462.08 125.93 468.03 139.04 460.91 147.87 463.55 153.73 453.64 155.71 453.4 162.07 443.62 167.65 436.43 166.42 434.81 160.39 439.58 158.13 440.53 151.4 430.17 147.58 414.21 146.3 412.56 151.58 404.5 149.89 399.39 141.67 410.54 135.46 416.2 129.76 427.2 125.36 433.83 126.52 444.91 119.42 462.08 125.93 Z" fill="#ffffff" id="횡성군" stroke="#3884FF" stroke-width="0.5"/>
<path d="M 502.98 171.53 503.15 177.37 511.93 182.5 524.92 178.68 544.19 186.92 540.37 191.88 545.43 196.92 537.38 199.04 528.07 194.48 519.88 200.6 512.64 197.28 490.51 191.61 483.56 192.48 478.64 185.51 467.72 188.55 463.92 179.19 456.22 174 457.02 169 444.51 170.99 443.62 167.65 453.4 162.07 453.64 155.71 463.55 153.73 471.22 157.58 471.04 164.78 478.2 168.93 483.04 161.99 493.39 168.66 502.98 171.53 Z" fill="#ffffff" id="영월군" stroke="#3884FF" stroke-width="0.5"/>
<path d="M 516.05 133.23 504.71 134.44 503.13 140.69 496.35 146.72 498.26 154.84 505.56 169.7 502.98 171.53 493.39 168.66 483.04 161.99 478.2 168.93 471.04 164.78 471.22 157.58 463.55 153.73 460.91 147.87 468.03 139.04 462.08 125.93 468.49 117.82 485.11 117.67 487.53 113.04 496.15 112.93 496.37 108.57 503.83 101.29 510.46 106.38 519.85 108.06 524.29 111.44 526.99 120.07 523.23 128.25 516.05 133.23 Z" fill="#ffffff" id="평창군" stroke="#3884FF" stroke-width="0.5"/>
<path d="M 553.44 137.82 555.5 144.16 551.44 148.88 547.62 148.63 540.4 154.76 537.26 162.27 545.13 178.1 544.19 186.92 524.92 178.68 511.93 182.5 503.15 177.37 502.98 171.53 505.56 169.7 498.26 154.84 496.35 146.72 503.13 140.69 504.71 134.44 516.05 133.23 537.54 140.2 540.76 130.71 548.16 137.06 553.44 137.82 Z" fill="#ffffff" id="정선군" stroke="#3884FF" stroke-width="0.5"/>
<path d="M 415.67 39.4 412.39 42.64 402.18 42.03 388.18 45.1 376.37 46.08 369.45 53.13 364.34 62.71 357.52 63.96 350.93 63.57 343.57 66.58 330.9 61.04 325.77 54.97 323.58 48.32 317.27 48.53 314.93 42.87 333.34 36.38 341.75 38.31 351.2 35.79 366.13 40.53 376.15 35.92 381.82 37.37 400.86 35.89 406.86 39.52 415.67 39.4 Z" fill="#ffffff" id="철원군" stroke="#3884FF" stroke-width="0.5"/>
<path d="M 412.39 42.64 411.01 52.08 417.47 72.18 402.94 79.33 396.57 73.74 385.48 75.18 378.64 68.46 371.4 78.53 360.95 76.45 359.51 72.1 357.52 63.96 364.34 62.71 369.45 53.13 376.37 46.08 388.18 45.1 402.18 42.03 412.39 42.64 Z" fill="#ffffff" id="화천군" stroke="#3884FF" stroke-width="0.5"/>
<path d="M 433.59 76.75 417.47 72.18 411.01 52.08 412.39 42.64 415.67 39.4 422.5 39.7 430.63 43.33 432.15 38.71 440.93 38.27 451.51 38.51 449.56 46.04 445.06 49.03 440.8 59.28 441.01 66.44 444.83 72.57 433.59 76.75 Z" fill="#ffffff" id="양구군" stroke="#3884FF" stroke-width="0.5"/>
<path d="M 486 52.74 483.4 56.03 488.86 63.47 481.17 66.41 482.57 70.74 492.49 72.43 494.96 77.99 488.7 86.78 490.97 92.19 483.36 93.48 473.87 100.67 467.09 95.14 456.33 102.39 451.26 97.5 451.96 93.22 440.32 91.09 433.66 85.66 429.21 86.07 428.76 79.74 433.59 76.75 444.83 72.57 441.01 66.44 440.8 59.28 445.06 49.03 449.56 46.04 451.51 38.51 440.93 38.27 458.55 29.13 469.47 36.63 470.19 44.29 477.08 47.79 482.86 46.32 486 52.74 Z" fill="#ffffff" id="인제군" stroke="#3884FF" stroke-width="0.5"/>
<path d="M 504.11 49.3 493.23 52.93 486 52.74 482.86 46.32 477.08 47.79 470.19 44.29 469.47 36.63 458.55 29.13 465.83 23.22 469.61 13.54 469.76 4.35 475.41 1 481.89 8.44 487.71 23.59 494.96 31.8 501.01 45.92 504.11 49.3 Z" fill="#ffffff" id="고성군" stroke="#3884FF" stroke-width="0.5"/>
<path d="M 507.13 58.13 507.91 60.75 522.91 76.44 532.69 89.08 511.48 91.95 504.5 96.13 498.37 92.43 490.97 92.19 488.7 86.78 494.96 77.99 492.49 72.43 482.57 70.74 481.17 66.41 488.86 63.47 507.13 58.13 Z" fill="#ffffff" id="양양군" stroke="#3884FF" stroke-width="0.5"/>
<path d="M 420.48 184.57 428.04 191.41 434.87 191.31 439.88 195.14 440.83 211.82 434.35 224 446.8 226.83 437.36 228.91 427.97 228.95 425.94 223.45 402.92 213.57 393.8 210.87 386.17 203.89 394.34 191.54 391.16 187.76 397.42 178.46 403.11 187.38 420.48 184.57 Z" fill="#ffffff" id="충주시" stroke="#3884FF" stroke-width="0.5"/>
<path d="M 305.79 132.19 305.81 132.97 298.62 133.74 296.54 128.05 297.74 125.63 299.72 125.38 305.79 132.19 Z" fill="#ffffff" id="종로구" stroke="#3884FF" stroke-width="0.5"/>
<path d="M 305.81 132.97 305.82 132.97 303.99 136.5 298.07 135.55 297.98 134.6 298.62 133.74 305.81 132.97 Z" fill="#ffffff" id="중구" stroke="#3884FF" stroke-width="0.5"/>
<path d="M 303.99 136.5 305.06 137.78 303.94 138.85 300.36 141.27 296.48 139.88 295.81 137.81 298.07 135.55 303.99 136.5 Z" fill="#ffffff" id="용산구" stroke="#3884FF" stroke-width="0.5"/>
<path d="M 312.04 134.49 309.99 138.5 305.06 137.78 303.99 136.5 305.82 132.97 312.04 134.49 Z" fill="#ffffff" id="성동구" stroke="#3884FF" stroke-width="0.5"/>
<path d="M 317.48 134.89 316.72 136.62 311.42 138.98 309.99 138.5 312.04 134.49 312.78 132.97 315.66 132.73 317.48 134.89 Z" fill="#ffffff" id="광진구" stroke="#3884FF" stroke-width="0.5"/>
<path d="M 456.22 174 463.92 179.19 467.72 188.55 457.5 198.69 462.07 204.42 463.42 211.65 459.89 213.97 460.54 221.81 457.29 229.41 446.8 226.83 434.35 224 440.83 211.82 439.88 195.14 434.87 191.31 428.04 191.41 420.48 184.57 419.88 177.02 427.28 172.79 432.27 174.56 434.56 181.56 450.66 178.51 456.22 174 Z" fill="#ffffff" id="제천시" stroke="#3884FF" stroke-width="0.5"/>
<path d="M 400.56 255.88 391.05 257.85 384.65 255.68 380.61 262.56 374.6 265.2 376.09 270.3 368.18 278.93 365.38 276.79 363.86 271.99 360.24 263.81 366.2 257.87 364.15 250.69 374.85 246.95 381.32 242.74 387.23 239.88 392.09 242.57 393.04 248.42 400.56 255.88 Z" fill="#ffffff" id="청주시 상당구" stroke="#3884FF" stroke-width="0.5"/>
<path d="M 364.15 250.69 366.2 257.87 360.24 263.81 363.86 271.99 360.16 275.53 353.91 274.67 353.15 270.14 353.87 263.85 350.74 260.47 364.04 250.49 364.15 250.69 Z" fill="#ffffff" id="청주시 서원구" stroke="#3884FF" stroke-width="0.5"/>
<path d="M 364.04 250.49 350.74 260.47 341.76 256.13 339.07 244.87 343.23 240.53 352.96 241.5 364.04 250.49 Z" fill="#ffffff" id="청주시 흥덕구" stroke="#3884FF" stroke-width="0.5"/>
<path d="M 381.32 242.74 374.85 246.95 364.15 250.69 364.04 250.49 352.96 241.5 343.23 240.53 349.14 235.87 356.14 236.37 374.57 233.5 381.32 242.74 Z" fill="#ffffff" id="청주시 청원구" stroke="#3884FF" stroke-width="0.5"/>
<path d="M 404.25 256.12 416.67 265.13 412.55 281.4 414.58 285.41 397.67 283.59 382.99 276.99 380.54 281.38 373.16 282.43 368.18 278.93 376.09 270.3 374.6 265.2 380.61 262.56 384.65 255.68 391.05 257.85 400.56 255.88 404.25 256.12 Z" fill="#ffffff" id="보은군" stroke="#3884FF" stroke-width="0.5"/>
<path d="M 414.58 285.41 410.18 292.4 391.96 299.46 386.03 309.95 378.75 309.1 378.79 305.01 370.48 300.72 365.4 302.36 366.51 289.4 373.16 282.43 380.54 281.38 382.99 276.99 397.67 283.59 414.58 285.41 Z" fill="#ffffff" id="옥천군" stroke="#3884FF" stroke-width="0.5"/>
<path d="M 410.18 292.4 425.78 300.79 435.64 300.56 426.7 308.74 428.42 315.73 424.87 323.65 414.19 329.72 411.14 327.61 400.14 331.03 383.89 323.92 377.7 315.51 378.75 309.1 386.03 309.95 391.96 299.46 410.18 292.4 Z" fill="#ffffff" id="영동군" stroke="#3884FF" stroke-width="0.5"/>
<path d="M 359.62 204.21 359.88 212.19 370.87 216.89 376.28 224.16 374.57 233.5 356.14 236.37 353.86 231.61 339.75 219.28 339.4 219.08 352.91 205.8 359.62 204.21 Z" fill="#ffffff" id="진천군" stroke="#3884FF" stroke-width="0.5"/>
<path d="M 437.36 228.91 433.94 237.65 424.37 239.17 420.81 244.84 420.18 256.13 413.83 249.4 404.25 256.12 400.56 255.88 393.04 248.42 392.09 242.57 387.23 239.88 381.7 232.53 383.81 225.03 390.97 220.83 402.88 220.75 402.92 213.57 425.94 223.45 427.97 228.95 437.36 228.91 Z" fill="#ffffff" id="괴산군" stroke="#3884FF" stroke-width="0.5"/>
<path d="M 391.16 187.76 394.34 191.54 386.17 203.89 393.8 210.87 402.92 213.57 402.88 220.75 390.97 220.83 383.81 225.03 376.28 224.16 370.87 216.89 359.88 212.19 359.62 204.21 364.69 198.68 370.51 198.58 383.08 193.34 382.63 185.87 391.16 187.76 Z" fill="#ffffff" id="음성군" stroke="#3884FF" stroke-width="0.5"/>
<path d="M 512.64 197.28 503.76 200.18 485.91 214.82 483.67 221.27 486.85 224.82 483.23 229.53 476.62 230.73 470.58 229 460.54 221.81 459.89 213.97 463.42 211.65 462.07 204.42 457.5 198.69 467.72 188.55 478.64 185.51 483.56 192.48 490.51 191.61 512.64 197.28 Z" fill="#ffffff" id="단양군" stroke="#3884FF" stroke-width="0.5"/>
<path d="M 383.81 225.03 381.7 232.53 387.23 239.88 381.32 242.74 374.57 233.5 376.28 224.16 383.81 225.03 Z" fill="#ffffff" id="증평군" stroke="#3884FF" stroke-width="0.5"/>
<path d="M 356.14 236.37 349.14 235.87 343.23 240.53 339.07 244.87 327.9 240.11 319.91 242.83 321.95 253.88 304.04 249.24 312.81 242.39 317.24 232.91 324.43 225.29 331.64 224.52 339.75 219.28 353.86 231.61 356.14 236.37 Z" fill="#ffffff" id="천안시 동남구" stroke="#3884FF" stroke-width="0.5"/>
<path d="M 318.11 209.36 328.41 211.69 339.4 219.08 339.75 219.28 331.64 224.52 324.43 225.29 317.24 232.91 312.25 213.39 318.11 209.36 Z" fill="#ffffff" id="천안시 서북구" stroke="#3884FF" stroke-width="0.5"/>
<path d="M 298.74 246.33 304.04 249.24 321.95 253.88 327.49 258.85 324.87 269.19 328.42 276.46 338.67 279.93 335.83 291.02 327.78 290.08 320.87 293.84 316.05 290.12 311.22 297.39 301.21 293.72 299.96 290.02 306.12 282.15 302.64 274.25 292.11 274.72 289.42 271.16 290.03 261.52 292.75 259.25 298.74 246.33 Z" fill="#ffffff" id="공주시" stroke="#3884FF" stroke-width="0.5"/>
<path d="M 261.19 273.96 267.9 284.97 262.74 291.65 264.02 298.44 269.67 300.33 263.74 308.44 253.28 310.75 242.6 308.79 245.44 298.72 239.99 291.65 245.18 287.51 236.76 283.69 239.38 276.09 237.19 267.29 237.27 267.26 247.37 268.2 252.25 271.74 253.92 271.02 261.19 273.96 Z" fill="#ffffff" id="보령시" stroke="#3884FF" stroke-width="0.5"/>
<path d="M 312.25 213.39 317.24 232.91 312.81 242.39 304.04 249.24 298.74 246.33 286.53 240.14 281.93 232.75 283.15 220.28 291.37 218.09 301.01 214.17 312.25 213.39 Z" fill="#ffffff" id="아산시" stroke="#3884FF" stroke-width="0.5"/>
<path d="M 234.7 205.16 238.1 212.83 236.06 220.71 242.66 227.6 256.61 230.37 258.86 234.18 250.65 248.32 231.82 256.35 221.6 253.23 218.4 229.08 229.35 214.83 220.2 210.44 220.58 205.01 227.36 203.27 234.7 205.16 Z" fill="#ffffff" id="서산시" stroke="#3884FF" stroke-width="0.5"/>
<path d="M 327.78 290.08 327.93 297.12 338.58 301.4 344.97 309.21 343.84 315.99 329 319.81 319.49 324.23 310.52 320.65 309.97 316.48 303.66 313.52 301.19 305.88 305.92 304.74 311.22 297.39 316.05 290.12 320.87 293.84 327.78 290.08 Z" fill="#ffffff" id="논산시" stroke="#3884FF" stroke-width="0.5"/>
<path d="M 335.83 291.02 335.71 297.53 339.92 299.03 338.58 301.4 327.93 297.12 327.78 290.08 335.83 291.02 Z" fill="#ffffff" id="계룡시" stroke="#3884FF" stroke-width="0.5"/>
<path d="M 283.15 220.28 281.93 232.75 274.41 236.72 267.92 231.19 258.86 234.18 256.61 230.37 242.66 227.6 236.06 220.71 238.1 212.83 234.7 205.16 237.96 198.03 256.43 205.43 265.34 205.67 275.04 208.63 280.2 219.23 283.15 220.28 Z" fill="#ffffff" id="당진시" stroke="#3884FF" stroke-width="0.5"/>
<path d="M 356.48 306.16 365.4 302.36 370.48 300.72 378.79 305.01 378.75 309.1 377.7 315.51 383.89 323.92 381.13 330.16 371.12 328.45 369.44 334.48 360.85 334.7 350.66 329.67 346.03 316.2 343.84 315.99 344.97 309.21 349.1 304.78 350.14 298.02 356.48 306.16 Z" fill="#ffffff" id="금산군" stroke="#3884FF" stroke-width="0.5"/>
<path d="M 299.96 290.02 301.21 293.72 311.22 297.39 305.92 304.74 301.19 305.88 303.66 313.52 295.08 313.44 287.89 315.91 286.48 323.49 276.89 313.48 276.58 309.62 263.74 308.44 269.67 300.33 264.02 298.44 262.74 291.65 267.9 284.97 284.99 288.9 293.55 292.64 299.96 290.02 Z" fill="#ffffff" id="부여군" stroke="#3884FF" stroke-width="0.5"/>
<path d="M 263.74 308.44 276.58 309.62 276.89 313.48 286.48 323.49 285.71 324.87 270.04 331.03 260.08 331.79 255.78 319.86 244.15 313.74 242.6 308.79 253.28 310.75 263.74 308.44 Z" fill="#ffffff" id="서천군" stroke="#3884FF" stroke-width="0.5"/>
<path d="M 290.03 261.52 289.42 271.16 292.11 274.72 302.64 274.25 306.12 282.15 299.96 290.02 293.55 292.64 284.99 288.9 267.9 284.97 261.19 273.96 269.39 272.6 274.05 264.72 280.58 265.44 284.25 259.99 290.03 261.52 Z" fill="#ffffff" id="청양군" stroke="#3884FF" stroke-width="0.5"/>
<path d="M 274.05 264.72 269.39 272.6 261.19 273.96 253.92 271.02 252.25 271.74 247.37 268.2 237.27 267.26 237.19 267.29 231.82 256.35 250.65 248.32 255.63 250.1 269.44 250.28 273.95 257.14 274.05 264.72 Z" fill="#ffffff" id="홍성군" stroke="#3884FF" stroke-width="0.5"/>
<path d="M 281.93 232.75 286.53 240.14 298.74 246.33 292.75 259.25 290.03 261.52 284.25 259.99 280.58 265.44 274.05 264.72 273.95 257.14 269.44 250.28 255.63 250.1 250.65 248.32 258.86 234.18 267.92 231.19 274.41 236.72 281.93 232.75 Z" fill="#ffffff" id="예산군" stroke="#3884FF" stroke-width="0.5"/>
<path d="M 221.57 254.82 223.57 257.79 227.48 274.91 223.06 280.37 218.23 276.39 216.78 256.62 221.57 254.82 Z M 218.4 229.08 221.6 253.23 216.69 256.33 209.05 244.25 195.61 246.51 196.99 236.26 195.78 228.75 200.93 224.47 201.45 218.33 206.76 216.95 216.24 219.94 212.29 228.97 218.4 229.08 Z" fill="#ffffff" fill-rule="evenodd" id="태안군" stroke="#3884FF" stroke-width="0.5"/>
<path d="M 330.4 357.77 323.4 360.08 313.66 367.05 311.11 359.12 311.44 354.84 311.96 354.76 312.02 354.76 312.02 354.68 312.09 354.64 312.09 354.64 312.11 354.66 313.82 353.66 313.82 353.62 322.87 354.32 330.4 357.77 Z" fill="#ffffff" id="전주시 완산구" stroke="#3884FF" stroke-width="0.5"/>
<path d="M 330.4 357.77 322.87 354.32 313.82 353.62 313.82 353.66 312.11 354.66 312.09 354.64 312.09 354.64 312.02 354.68 312.02 354.76 311.96 354.76 311.44 354.84 309.66 352.41 309.66 352.39 309.65 352.37 309.65 352.35 303.66 349.6 302.57 347.29 307.71 345.56 312.82 345.56 312.87 345.57 313.08 345.63 313.14 345.68 320.24 345.03 327.49 350.24 330.4 357.77 Z" fill="#ffffff" id="전주시 덕진구" stroke="#3884FF" stroke-width="0.5"/>
<path d="M 283.98 343.13 272.01 347.88 261.77 349.11 243.72 340.96 242.63 335.93 257.09 335.28 270.04 331.03 285.71 324.87 292.07 333 283.98 343.13 Z" fill="#ffffff" id="군산시" stroke="#3884FF" stroke-width="0.5"/>
<path d="M 303.66 313.52 309.97 316.48 310.52 320.65 319.49 324.23 314.5 341.42 307.71 345.56 302.57 347.29 296.74 343.62 283.98 343.13 292.07 333 285.71 324.87 286.48 323.49 287.89 315.91 295.08 313.44 303.66 313.52 Z" fill="#ffffff" id="익산시" stroke="#3884FF" stroke-width="0.5"/>
<path d="M 310.95 373.54 314.37 381.06 313.51 389.65 316.75 394.89 310.63 394.64 299.68 388.95 294.1 392.93 294.93 397.37 286.2 400.97 273.97 400.15 272.39 386.93 267.05 386.77 267.96 377.92 280.94 368.8 289.87 363.99 300.46 368.83 306.48 374.94 310.95 373.54 Z" fill="#ffffff" id="정읍시" stroke="#3884FF" stroke-width="0.5"/>
<path d="M 377.12 389.23 382.26 392.09 388.44 402.97 380.33 413.1 381.67 417.34 376.18 420.34 366.08 413.87 357.44 414.16 351.68 421.16 342.2 420.9 326.56 416.87 331.56 408.93 340.5 404.53 342.04 398.88 347.7 396.37 349.03 388.68 362.22 390.18 374.24 399.33 377.12 389.23 Z" fill="#ffffff" id="남원시" stroke="#3884FF" stroke-width="0.5"/>
<path d="M 242.46 366.53 242.31 366.7 236.79 356.32 237.07 356.15 237.31 356.06 237.55 355.99 242.46 366.53 Z M 283.98 343.13 296.74 343.62 302.57 347.29 303.66 349.6 302.61 356.05 311.11 359.12 313.66 367.05 310.95 373.54 306.48 374.94 300.46 368.83 289.87 363.99 280.94 368.8 272.75 358.4 264.52 356.34 261.77 349.11 272.01 347.88 283.98 343.13 Z" fill="#ffffff" fill-rule="evenodd" id="김제시" stroke="#3884FF" stroke-width="0.5"/>
<path d="M 311.44 354.84 311.11 359.12 302.61 356.05 303.66 349.6 309.65 352.35 309.65 352.37 309.66 352.39 309.66 352.41 311.44 354.84 Z M 350.66 329.67 346.5 335.01 347.65 338.99 345.17 348.65 337.32 360.82 331.28 369.13 325.38 365.9 318.61 372 320.05 377.4 314.37 381.06 310.95 373.54 313.66 367.05 323.4 360.08 330.4 357.77 327.49 350.24 320.24 345.03 313.14 345.68 313.08 345.63 312.87 345.57 312.82 345.56 307.71 345.56 314.5 341.42 319.49 324.23 329 319.81 343.84 315.99 346.03 316.2 350.66 329.67 Z" fill="#ffffff" fill-rule="evenodd" id="완주군" stroke="#3884FF" stroke-width="0.5"/>
<path d="M 369.44 334.48 372.51 341.08 381.57 353.03 376.33 358.76 370.55 356.03 369.23 363.51 363.3 368.71 358.25 380.56 348.47 374.65 339.95 371.83 337.32 360.82 345.17 348.65 347.65 338.99 346.5 335.01 350.66 329.67 360.85 334.7 369.44 334.48 Z" fill="#ffffff" id="진안군" stroke="#3884FF" stroke-width="0.5"/>
<path d="M 414.19 329.72 418.23 340 415.24 344.06 411.25 347.65 396.75 354.2 391.7 359.47 381.57 353.03 372.51 341.08 369.44 334.48 371.12 328.45 381.13 330.16 383.89 323.92 400.14 331.03 411.14 327.61 414.19 329.72 Z" fill="#ffffff" id="무주군" stroke="#3884FF" stroke-width="0.5"/>
<path d="M 381.57 353.03 391.7 359.47 389.13 361.98 377.12 389.23 374.24 399.33 362.22 390.18 349.03 388.68 351.11 381.64 358.25 380.56 363.3 368.71 369.23 363.51 370.55 356.03 376.33 358.76 381.57 353.03 Z" fill="#ffffff" id="장수군" stroke="#3884FF" stroke-width="0.5"/>
<path d="M 358.25 380.56 351.11 381.64 349.03 388.68 347.7 396.37 342.04 398.88 329.53 397.31 321.16 400.91 316.75 394.89 313.51 389.65 314.37 381.06 320.05 377.4 318.61 372 325.38 365.9 331.28 369.13 337.32 360.82 339.95 371.83 348.47 374.65 358.25 380.56 Z" fill="#ffffff" id="임실군" stroke="#3884FF" stroke-width="0.5"/>
<path d="M 316.75 394.89 321.16 400.91 329.53 397.31 342.04 398.88 340.5 404.53 331.56 408.93 326.56 416.87 315.13 421.24 308.71 419.11 309.49 405.41 307.26 400.32 292.62 408.53 286.2 400.97 294.93 397.37 294.1 392.93 299.68 388.95 310.63 394.64 316.75 394.89 Z" fill="#ffffff" id="순창군" stroke="#3884FF" stroke-width="0.5"/>
<path d="M 261.34 387.19 267.05 386.77 272.39 386.93 273.97 400.15 268.72 411.71 257.74 418.96 252.62 416.96 243.46 420.61 241.96 415.33 232.72 405.01 237.45 393.23 253.84 387.13 261.34 387.19 Z" fill="#ffffff" id="고창군" stroke="#3884FF" stroke-width="0.5"/>
<path d="M 264.52 356.34 272.75 358.4 280.94 368.8 267.96 377.92 267.05 386.77 261.34 387.19 248.91 384.59 240.44 386.02 234.99 378.26 246.51 370.95 242.31 366.7 242.46 366.53 246.74 370.9 251.17 365.47 248.75 361.03 253.41 356.68 264.52 356.34 Z" fill="#ffffff" id="부안군" stroke="#3884FF" stroke-width="0.5"/>
<path d="M 234.06 485.81 232.43 486.06 222.25 484.46 228.22 479.4 234.06 485.81 Z" fill="#ffffff" id="목포시" stroke="#3884FF" stroke-width="0.5"/>
<path d="M 396.82 493.36 403.79 501.3 402.64 512.22 393.06 507.43 399.55 499.63 396.82 493.36 Z M 380.76 473.2 383.64 481.4 391.57 477.44 400.98 477.15 397.89 491.54 392.25 495.07 386.83 490.76 382.19 497.78 382.25 505.99 372.91 502.42 372.5 496.02 378.13 492.11 371.8 479.43 372.38 473.7 378.44 473.24 380.76 473.2 Z" fill="#ffffff" fill-rule="evenodd" id="여수시" stroke="#3884FF" stroke-width="0.5"/>
<path d="M 370.75 446.21 369.58 450.48 374.89 459.23 372.38 464.63 376.32 469.87 377.21 469.89 378.44 473.24 372.38 473.7 371.8 479.43 355.12 480.07 350.94 479.31 341.77 471.88 335.04 474.26 327.84 461.18 325.1 462.41 327.97 442.85 343.81 450.75 350.5 446.78 354.91 441.09 354.86 435.68 363.97 440.24 370.75 446.21 Z" fill="#ffffff" id="순천시" stroke="#3884FF" stroke-width="0.5"/>
<path d="M 273.81 450.65 277.92 452.92 289.13 449.67 286.1 458.34 289.47 460.98 285.9 467.23 286.32 473.47 280.48 475.94 273.31 472.44 256.04 473.67 252.9 468.83 246.59 476.2 241.13 469.9 244.58 462.74 251.87 457.93 250.48 452.59 259.06 444.98 269.38 445.82 273.81 450.65 Z" fill="#ffffff" id="나주시" stroke="#3884FF" stroke-width="0.5"/>
<path d="M 380.76 473.2 378.44 473.24 377.21 469.89 380.76 473.2 Z M 399.28 463.79 384.04 474.32 376.32 469.87 372.38 464.63 374.89 459.23 369.58 450.48 370.75 446.21 378.38 444.06 382.17 436.38 390.96 443.32 391.08 446.07 402.51 456.91 399.28 463.79 Z" fill="#ffffff" fill-rule="evenodd" id="광양시" stroke="#3884FF" stroke-width="0.5"/>
<path d="M 315.13 421.24 313.16 428.12 317.83 434.81 311.44 438.67 311.88 444.84 303.95 442.58 305.68 437.81 299.31 436.08 294.12 427.72 287.56 427.63 285.42 418.62 292.62 408.53 307.26 400.32 309.49 405.41 308.71 419.11 315.13 421.24 Z" fill="#ffffff" id="담양군" stroke="#3884FF" stroke-width="0.5"/>
<path d="M 351.68 421.16 354.86 435.68 354.91 441.09 350.5 446.78 343.81 450.75 327.97 442.85 325.51 432.56 317.83 434.81 313.16 428.12 315.13 421.24 326.56 416.87 342.2 420.9 351.68 421.16 Z" fill="#ffffff" id="곡성군" stroke="#3884FF" stroke-width="0.5"/>
<path d="M 376.18 420.34 381.49 429.65 382.17 436.38 378.38 444.06 370.75 446.21 363.97 440.24 354.86 435.68 351.68 421.16 357.44 414.16 366.08 413.87 376.18 420.34 Z" fill="#ffffff" id="구례군" stroke="#3884FF" stroke-width="0.5"/>
<path d="M 330.49 523.69 330.47 531.11 318.68 531.77 315.22 527.19 330.49 523.69 Z M 361.12 517.27 367.21 524.09 360.32 525.78 361.12 517.27 Z M 352.42 486.28 350.2 492.38 356.86 499.91 365.03 504.09 367.16 509.91 357.87 516.42 352.55 524.56 345.14 525.69 335.26 520.43 318.39 519.34 317.23 515.54 324.7 510.9 326.94 504.82 331.7 503.43 333.36 497.65 342.55 502.03 345.4 496.58 333.41 490.07 339.83 483.6 347.62 481.74 352.42 486.28 Z" fill="#ffffff" fill-rule="evenodd" id="고흥군" stroke="#3884FF" stroke-width="0.5"/>
<path d="M 355.12 480.07 352.42 486.28 347.62 481.74 339.83 483.6 333.41 490.07 326.27 498.37 317.37 498.5 308.71 505.92 305.23 499.99 299.27 496.64 304.64 492.84 307.6 480.12 314.26 475.6 313.31 468.97 325.1 462.41 327.84 461.18 335.04 474.26 341.77 471.88 350.94 479.31 355.12 480.07 Z" fill="#ffffff" id="보성군" stroke="#3884FF" stroke-width="0.5"/>
<path d="M 327.97 442.85 325.1 462.41 313.31 468.97 314.26 475.6 307.6 480.12 299.94 478.55 293.81 481.13 290.05 475.73 284.81 476.23 280.48 475.94 286.32 473.47 285.9 467.23 289.47 460.98 286.1 458.34 289.13 449.67 292.61 447.94 301.44 447.51 303.39 444.19 303.95 442.58 311.88 444.84 311.44 438.67 317.83 434.81 325.51 432.56 327.97 442.85 Z" fill="#ffffff" id="화순군" stroke="#3884FF" stroke-width="0.5"/>
<path d="M 307.6 480.12 304.64 492.84 299.27 496.64 305.23 499.99 308.71 505.92 305.22 507.18 301.47 515.23 300.15 524.96 293.43 529.07 283.16 529.25 283.72 521.45 287.47 514.97 283.73 494.78 276.86 487.34 278.39 481.2 284.81 476.23 290.05 475.73 293.81 481.13 299.94 478.55 307.6 480.12 Z" fill="#ffffff" id="장흥군" stroke="#3884FF" stroke-width="0.5"/>
<path d="M 276.86 487.34 283.73 494.78 287.47 514.97 283.72 521.45 283.16 529.25 278.07 528.64 275.75 521.42 269.18 528.7 262.52 526.39 261.17 510.87 264.97 502.49 260.97 498.81 259.27 493.45 265.06 489.29 269.61 490.53 276.86 487.34 Z" fill="#ffffff" id="강진군" stroke="#3884FF" stroke-width="0.5"/>
<path d="M 225.11 494.38 225.17 494.39 234.64 496.46 244.93 503.02 248.25 500.39 260.97 498.81 264.97 502.49 261.17 510.87 262.52 526.39 269.18 528.7 256.48 534.23 252.24 546.12 246.83 545.67 241.88 540.73 236.41 541.39 234.33 519 211.34 510.84 209.13 496.95 216.41 491.35 220.92 498.48 225.11 494.38 Z" fill="#ffffff" id="해남군" stroke="#3884FF" stroke-width="0.5"/>
<path d="M 280.48 475.94 284.81 476.23 278.39 481.2 276.86 487.34 269.61 490.53 265.06 489.29 259.27 493.45 260.97 498.81 248.25 500.39 244.93 503.02 234.64 496.46 225.17 494.39 225.11 494.38 224.31 488.93 232.43 486.06 234.06 485.81 238.39 488.76 244.76 483.42 246.59 476.2 252.9 468.83 256.04 473.67 273.31 472.44 280.48 475.94 Z" fill="#ffffff" id="영암군" stroke="#3884FF" stroke-width="0.5"/>
<path d="M 233.96 450.17 238.17 459.39 244.58 462.74 241.13 469.9 246.59 476.2 244.76 483.42 238.39 488.76 234.06 485.81 228.22 479.4 222.14 469.72 216.55 466.63 219.67 459.32 225.42 456.48 212.12 451.68 209.11 452.76 207.39 447.23 209.37 441.05 214.9 442.08 218.36 447.93 233.96 450.17 Z" fill="#ffffff" id="무안군" stroke="#3884FF" stroke-width="0.5"/>
<path d="M 258.81 435.13 259.06 444.98 250.48 452.59 251.87 457.93 244.58 462.74 238.17 459.39 233.96 450.17 222.89 438.78 228.33 435.84 243.56 436.42 249.58 434.61 251.04 430.1 258.81 435.13 Z" fill="#ffffff" id="함평군" stroke="#3884FF" stroke-width="0.5"/>
<path d="M 232.72 405.01 241.96 415.33 243.46 420.61 252.62 416.96 257.74 418.96 250.13 426.82 251.04 430.1 249.58 434.61 243.56 436.42 228.33 435.84 222.89 438.78 220.79 433.95 213.87 432.71 215.36 427.41 221.73 423.41 228.9 405.79 232.72 405.01 Z" fill="#ffffff" id="영광군" stroke="#3884FF" stroke-width="0.5"/>
<path d="M 286.2 400.97 292.62 408.53 285.42 418.62 287.56 427.63 281.9 430.52 276.85 431.66 269.36 427.72 265.08 433.21 258.81 435.13 251.04 430.1 250.13 426.82 257.74 418.96 268.72 411.71 273.97 400.15 286.2 400.97 Z" fill="#ffffff" id="장성군" stroke="#3884FF" stroke-width="0.5"/>
<path d="M 258.38 561.18 261.73 562.67 260.9 571.34 256.73 570.88 258.38 561.18 Z M 288.93 558.95 293.22 563.61 288.05 567.36 284.61 562.23 288.93 558.95 Z M 264.14 535.96 268.75 538.71 271.97 549.65 263.29 548.87 258.29 544.15 257 538.03 264.14 535.96 Z M 281.85 530.3 285.74 536.4 281.24 538.54 271.23 537.87 274.27 532.89 281.85 530.3 Z" fill="#ffffff" fill-rule="evenodd" id="완도군" stroke="#3884FF" stroke-width="0.5"/>
<path d="M 207.63 511.79 214.44 514.07 222.72 521.19 222.32 530.27 218.45 533.97 209.57 536.1 206.28 539.5 197.8 541.76 192.3 540.78 187.22 533.45 190.64 528.35 200.18 523.83 207.7 515.3 207.63 511.79 Z" fill="#ffffff" id="진도군" stroke="#3884FF" stroke-width="0.5"/>
<path d="M 171.18 493 177.13 499.15 166.2 501.21 165.51 496.17 171.18 493 Z M 187.18 488.17 196.52 490.38 186.39 495.59 187.18 488.17 Z M 175.03 484.09 174.52 489.7 168.19 494.87 162.14 488.9 175.03 484.09 Z M 190.43 474.43 193.5 481.1 186.03 482.56 183.29 478.67 190.43 474.43 Z M 214 469.57 218.33 478.81 209.35 477.44 214 469.57 Z M 183.06 467.35 187.87 471.71 184.28 477.73 174.82 476.91 183.06 467.35 Z M 207.39 447.23 209.11 452.76 196.41 451.11 200.02 445.28 207.39 447.23 Z M 195.8 440.87 191.82 442.27 190.32 451.49 181.22 448.81 190.53 441.89 195.8 440.87 Z" fill="#ffffff" fill-rule="evenodd" id="신안군" stroke="#3884FF" stroke-width="0.5"/>
<path d="M 622.51 352.66 614.26 351.9 610.41 347.35 604.05 350.26 592.02 329.16 593.18 324.62 604.13 326.25 613.45 333.65 629.07 322.64 630.81 330.08 622.66 342.66 622.51 352.66 Z" fill="#ffffff" id="포항시 남구" stroke="#3884FF" stroke-width="0.5"/>
<path d="M 604.57 298.52 607.39 315.53 612.65 318.53 604.13 326.25 593.18 324.62 587.91 323.46 582.71 327.08 576.04 325.62 565.83 318.09 562.45 312.77 555.49 311.23 562.16 304.39 573.69 299.3 579.42 303.69 588.8 291.75 595.44 298.56 604.57 298.52 Z" fill="#ffffff" id="포항시 북구" stroke="#3884FF" stroke-width="0.5"/>
<path d="M 593.18 324.62 592.02 329.16 604.05 350.26 610.41 347.35 614.26 351.9 622.51 352.66 617.17 371.97 613.94 376.89 601.72 373.29 594.46 377.85 590.08 371.51 582.91 367.99 569.74 369.91 562.78 376.96 553.38 365.92 553.6 361.57 558.75 352.11 560.37 344.47 571.57 337.44 576.04 325.62 582.71 327.08 587.91 323.46 593.18 324.62 Z" fill="#ffffff" id="경주시" stroke="#3884FF" stroke-width="0.5"/>
<path d="M 466.92 321.41 466.63 327.01 458.17 325.55 451.05 328.78 449.01 336.86 436.96 339.97 439.66 352.94 431.33 354.3 421.35 349.82 415.24 344.06 418.23 340 414.19 329.72 424.87 323.65 428.42 315.73 426.7 308.74 435.64 300.56 447.21 299.95 459.86 304.05 467.32 311.23 466.92 321.41 Z" fill="#ffffff" id="김천시" stroke="#3884FF" stroke-width="0.5"/>
<path d="M 555.69 237.6 556.8 257.15 553.31 264.74 555.94 269.36 552.74 273.99 554.78 280.88 552.03 289.55 542.79 294.81 541.72 287 535.29 275.14 524.73 270.5 516.6 276.16 507.34 279.49 499.84 270.48 484.25 266.5 497.07 256.21 498.99 252.33 506.62 249.69 504.86 243.57 509.8 241.19 523.48 243.94 524.24 231.28 531.8 228.05 542.91 234.54 550.79 234.63 555.69 237.6 Z" fill="#ffffff" id="안동시" stroke="#3884FF" stroke-width="0.5"/>
<path d="M 466.37 288.6 476.28 289.64 481.95 296.11 482.87 301.36 490.59 302.77 497.98 307.83 501.31 318.47 493.02 318.15 488.61 323.72 480.18 321.22 475.7 324.89 466.92 321.41 467.32 311.23 459.86 304.05 447.21 299.95 450 294.89 458.88 293.5 466.37 288.6 Z" fill="#ffffff" id="구미시" stroke="#3884FF" stroke-width="0.5"/>
<path d="M 519.88 200.6 517.83 208.92 510.95 220.11 511.33 223.73 522.1 222.6 524.24 231.28 523.48 243.94 509.8 241.19 504.86 243.57 501.07 236.01 492.98 235.31 486.85 224.82 483.67 221.27 485.91 214.82 503.76 200.18 512.64 197.28 519.88 200.6 Z" fill="#ffffff" id="영주시" stroke="#3884FF" stroke-width="0.5"/>
<path d="M 555.49 311.23 562.45 312.77 565.83 318.09 576.04 325.62 571.57 337.44 560.37 344.47 558.75 352.11 553.08 353.46 545.01 353.53 538.45 345.31 539 338.53 523.13 333.46 518.17 330.53 522.12 320.74 531.24 321.75 542.83 314.48 543.49 310.59 555.49 311.23 Z" fill="#ffffff" id="영천시" stroke="#3884FF" stroke-width="0.5"/>
<path d="M 420.18 256.13 422.17 265.74 436.68 263.23 437.12 258.22 445.03 253.6 463.86 264.54 463.8 271.94 469.65 274.85 472.89 281.16 466.37 288.6 458.88 293.5 450 294.89 447.21 299.95 435.64 300.56 425.78 300.79 410.18 292.4 414.58 285.41 412.55 281.4 416.67 265.13 404.25 256.12 413.83 249.4 420.18 256.13 Z" fill="#ffffff" id="상주시" stroke="#3884FF" stroke-width="0.5"/>
<path d="M 476.62 230.73 475.77 238.52 472.04 239.25 473.97 250.51 463.22 255.67 467.54 262.29 463.86 264.54 445.03 253.6 437.12 258.22 436.68 263.23 422.17 265.74 420.18 256.13 420.81 244.84 424.37 239.17 433.94 237.65 437.36 228.91 446.8 226.83 457.29 229.41 460.54 221.81 470.58 229 476.62 230.73 Z" fill="#ffffff" id="문경시" stroke="#3884FF" stroke-width="0.5"/>
<path d="M 553.08 353.46 548.49 362.78 531.53 364.86 526.93 368.41 517.92 365.13 516.5 359.23 520.76 357.31 521.98 350.65 526.32 349.59 523.51 341.71 523.13 333.46 539 338.53 538.45 345.31 545.01 353.53 553.08 353.46 Z" fill="#ffffff" id="경산시" stroke="#3884FF" stroke-width="0.5"/>
<path d="M 484.25 266.5 499.84 270.48 507.34 279.49 516.6 276.16 524.73 270.5 535.29 275.14 541.72 287 542.79 294.81 540.22 303.17 541.99 307.39 534.8 304.87 530.97 308.35 518.26 306.91 511.18 299.88 486.6 291.6 481.95 296.11 476.28 289.64 466.37 288.6 472.89 281.16 469.65 274.85 472.85 270.37 484.25 266.5 Z" fill="#ffffff" id="의성군" stroke="#3884FF" stroke-width="0.5"/>
<path d="M 576.14 269.06 578.48 277.23 585.76 282.27 585.27 288.56 588.8 291.75 579.42 303.69 573.69 299.3 562.16 304.39 555.49 311.23 543.49 310.59 541.99 307.39 540.22 303.17 542.79 294.81 552.03 289.55 554.78 280.88 552.74 273.99 555.94 269.36 553.31 264.74 556.8 257.15 565.43 263.7 573.12 264.79 576.14 269.06 Z" fill="#ffffff" id="청송군" stroke="#3884FF" stroke-width="0.5"/>
<path d="M 590.99 247.03 586.92 248.42 586.16 258.54 588.31 267.78 576.14 269.06 573.12 264.79 565.43 263.7 556.8 257.15 555.69 237.6 576.55 221.12 588.19 224.35 596.71 233.43 591.32 238.01 590.99 247.03 Z" fill="#ffffff" id="영양군" stroke="#3884FF" stroke-width="0.5"/>
<path d="M 610.56 250.86 609.89 259.51 613.52 269.49 611.36 280.62 604.99 290.29 604.57 298.52 595.44 298.56 588.8 291.75 585.27 288.56 585.76 282.27 578.48 277.23 576.14 269.06 588.31 267.78 586.16 258.54 586.92 248.42 590.99 247.03 610.56 250.86 Z" fill="#ffffff" id="영덕군" stroke="#3884FF" stroke-width="0.5"/>
<path d="M 562.78 376.96 557.17 380.8 546.03 378.22 538.29 383.73 526.11 387.5 517.15 384.01 505.16 385.35 497.97 380.26 497.12 372.83 496.87 369.06 503.55 365.77 509.14 370.25 517.92 365.13 526.93 368.41 531.53 364.86 548.49 362.78 553.08 353.46 558.75 352.11 553.6 361.57 553.38 365.92 562.78 376.96 Z" fill="#ffffff" id="청도군" stroke="#3884FF" stroke-width="0.5"/>
<path d="M 489.38 352.95 491.13 356.01 483.27 356.79 478.51 363.24 484.67 367.43 477.04 381.99 476.14 381.68 468.69 376.33 455.39 377.82 453.87 364.1 450.62 360.87 452.26 355.65 460.09 360.22 464.86 354.58 476.55 358.65 478.92 351.46 489.38 352.95 Z" fill="#ffffff" id="고령군" stroke="#3884FF" stroke-width="0.5"/>
<path d="M 466.63 327.01 469.6 333.44 480.5 345.42 478.92 351.46 476.55 358.65 464.86 354.58 460.09 360.22 452.26 355.65 450.62 360.87 441.36 354.09 439.66 352.94 436.96 339.97 449.01 336.86 451.05 328.78 458.17 325.55 466.63 327.01 Z" fill="#ffffff" id="성주군" stroke="#3884FF" stroke-width="0.5"/>
<path d="M 501.31 318.47 502.08 324.71 509.55 322.4 511.2 331.24 506.45 334.13 499.21 336.86 493.94 346.37 487.51 339.8 480.5 345.42 469.6 333.44 466.63 327.01 466.92 321.41 475.7 324.89 480.18 321.22 488.61 323.72 493.02 318.15 501.31 318.47 Z" fill="#ffffff" id="칠곡군" stroke="#3884FF" stroke-width="0.5"/>
<path d="M 504.86 243.57 506.62 249.69 498.99 252.33 497.07 256.21 484.25 266.5 472.85 270.37 469.65 274.85 463.8 271.94 463.86 264.54 467.54 262.29 463.22 255.67 473.97 250.51 472.04 239.25 475.77 238.52 476.62 230.73 483.23 229.53 486.85 224.82 492.98 235.31 501.07 236.01 504.86 243.57 Z" fill="#ffffff" id="예천군" stroke="#3884FF" stroke-width="0.5"/>
<path d="M 580.37 200.3 568.6 203.73 568.33 210.47 574.2 214.88 576.55 221.12 555.69 237.6 550.79 234.63 542.91 234.54 531.8 228.05 524.24 231.28 522.1 222.6 511.33 223.73 510.95 220.11 517.83 208.92 519.88 200.6 528.07 194.48 537.38 199.04 545.43 196.92 547.08 193.9 564.53 197.22 568.97 192.86 580.37 200.3 Z" fill="#ffffff" id="봉화군" stroke="#3884FF" stroke-width="0.5"/>
<path d="M 602.97 187.05 605.03 193.01 611.06 197.46 609.71 220.17 614.87 229.15 617.31 243.78 610.56 250.86 590.99 247.03 591.32 238.01 596.71 233.43 588.19 224.35 576.55 221.12 574.2 214.88 568.33 210.47 568.6 203.73 580.37 200.3 591.26 190.81 602.97 187.05 Z" fill="#ffffff" id="울진군" stroke="#3884FF" stroke-width="0.5"/>
<path d="M 798.8 135.86 799 145.02 794.08 147.32 786.66 145.29 784.58 140.14 798.8 135.86 Z" fill="#ffffff" id="울릉군" stroke="#3884FF" stroke-width="0.5"/>
<path d="M 464.63 426.88 476.47 434.9 474.06 443.43 461.23 443.27 453.72 447.8 453.24 453.1 448.54 445.03 438.8 443.27 430.67 445.16 429.65 439.84 422.04 440.19 415.85 430.67 426.2 427.8 437.28 417.21 444.4 417.51 449.69 415.06 452.82 423.34 464.63 426.88 Z" fill="#ffffff" id="진주시" stroke="#3884FF" stroke-width="0.5"/>
<path d="M 474.73 479.54 485.71 482 481.44 489.73 474.73 479.54 Z M 485.88 463.14 484.4 469.97 489.66 474.24 487.25 479.05 481.26 480.82 473.55 467.52 485.88 463.14 Z" fill="#ffffff" fill-rule="evenodd" id="통영시" stroke="#3884FF" stroke-width="0.5"/>
<path d="M 453.24 453.1 450.52 456.06 445.02 469.39 436.85 468.66 432.13 459.42 423.09 461.74 420.02 457.76 417.94 449.56 422.04 440.19 429.65 439.84 430.67 445.16 438.8 443.27 448.54 445.03 453.24 453.1 Z" fill="#ffffff" id="사천시" stroke="#3884FF" stroke-width="0.5"/>
<path d="M 540.86 411.03 552.87 417.89 558.53 424.8 556.41 429.59 542.35 432.34 542.26 432.39 536.88 439.5 530.62 439.61 523.93 438.34 521.94 429.41 519.18 422.16 526.87 415.69 538.98 409.34 540.86 411.03 Z" fill="#ffffff" id="김해시" stroke="#3884FF" stroke-width="0.5"/>
<path d="M 557.17 380.8 559.22 385.43 556.13 392.5 546.47 402.2 540.86 411.03 538.98 409.34 526.87 415.69 517.37 411.62 512.47 411.96 512.52 405.46 503.9 401.97 505.16 385.35 517.15 384.01 526.11 387.5 538.29 383.73 546.03 378.22 557.17 380.8 Z" fill="#ffffff" id="밀양시" stroke="#3884FF" stroke-width="0.5"/>
<path d="M 516.02 454.39 522.13 467.4 519.09 479.61 514.77 483.32 512.62 492.3 507.32 497.46 503.35 495.76 504.62 479.07 495.42 483.92 489.79 475.71 496.66 469.41 501.7 472.39 512.09 464.34 516.02 454.39 Z" fill="#ffffff" id="거제시" stroke="#3884FF" stroke-width="0.5"/>
<path d="M 582.37 410.32 579.45 414.9 573.92 414.75 570.61 420.89 562.85 424.75 558.53 424.8 552.87 417.89 540.86 411.03 546.47 402.2 556.13 392.5 570.37 396.69 574.55 402.61 581.82 403.93 582.37 410.32 Z" fill="#ffffff" id="양산시" stroke="#3884FF" stroke-width="0.5"/>
<path d="M 512.47 411.96 517.37 411.62 526.87 415.69 519.18 422.16 521.94 429.41 514.25 428.35 510.3 431.44 509.45 432 504.26 425.01 500.86 414.78 503.03 411.21 512.47 411.96 Z" fill="#ffffff" id="창원시 의창구" stroke="#3884FF" stroke-width="0.5"/>
<path d="M 521.94 429.41 523.93 438.34 514.89 436.62 507.28 440.39 504.67 434.25 510.3 431.44 514.25 428.35 521.94 429.41 Z" fill="#ffffff" id="창원시 성산구" stroke="#3884FF" stroke-width="0.5"/>
<path d="M 504.47 432.81 502.47 435.45 506.19 446.56 492.75 445.99 483.57 452.42 484.22 448.82 474.06 443.43 476.47 434.9 490.67 435.69 504.47 432.81 Z" fill="#ffffff" id="창원시 마산합포구" stroke="#3884FF" stroke-width="0.5"/>
<path d="M 504.26 425.01 509.45 432 504.47 432.81 490.67 435.69 492.15 424.83 504.26 425.01 Z" fill="#ffffff" id="창원시 마산회원구" stroke="#3884FF" stroke-width="0.5"/>
<path d="M 523.93 438.34 530.62 439.61 536.27 443.94 534.02 447.33 535.07 448.14 532.89 449.71 520.51 447.41 517.15 441.48 507.28 440.39 514.89 436.62 523.93 438.34 Z" fill="#ffffff" id="창원시 진해구" stroke="#3884FF" stroke-width="0.5"/>
<path d="M 478.07 394.34 479.14 405.49 485.37 409.69 470.15 418.26 464.63 426.88 452.82 423.34 449.69 415.06 444.4 417.51 440.33 412.63 453.95 408.9 455.32 399.2 463.65 394.83 478.07 394.34 Z" fill="#ffffff" id="의령군" stroke="#3884FF" stroke-width="0.5"/>
<path d="M 503.03 411.21 500.86 414.78 504.26 425.01 492.15 424.83 490.67 435.69 476.47 434.9 464.63 426.88 470.15 418.26 485.37 409.69 493.54 408.7 503.03 411.21 Z" fill="#ffffff" id="함안군" stroke="#3884FF" stroke-width="0.5"/>
<path d="M 505.16 385.35 503.9 401.97 512.52 405.46 512.47 411.96 503.03 411.21 493.54 408.7 485.37 409.69 479.14 405.49 478.07 394.34 474.46 391.4 476.14 381.68 477.04 381.99 486.53 378.5 494.12 378.35 497.12 372.83 497.97 380.26 505.16 385.35 Z" fill="#ffffff" id="창녕군" stroke="#3884FF" stroke-width="0.5"/>
<path d="M 474.06 443.43 484.22 448.82 483.57 452.42 493.48 457.84 485.88 463.14 473.55 467.52 456.3 467.46 452.86 472.73 445.02 469.39 450.52 456.06 453.24 453.1 453.72 447.8 461.23 443.27 474.06 443.43 Z" fill="#ffffff" id="고성군" stroke="#3884FF" stroke-width="0.5"/>
<path d="M 433.68 469.48 437.52 478.81 430.18 480.39 425.02 476.13 433.68 469.48 Z M 416.02 466.32 419.78 467.99 416.88 475.72 423.95 484.33 428.59 480.76 437.48 482.24 436.99 491.88 424.14 496.14 423.39 487.82 411.99 494.03 405.84 477.17 416.02 466.32 Z" fill="#ffffff" fill-rule="evenodd" id="남해군" stroke="#3884FF" stroke-width="0.5"/>
<path d="M 390.31 419.03 392.35 425.93 401.4 431.7 415.85 430.67 422.04 440.19 417.94 449.56 420.02 457.76 416.94 464.71 404.75 467.72 399.28 463.79 402.51 456.91 391.08 446.07 390.96 443.32 382.17 436.38 381.49 429.65 376.18 420.34 381.67 417.34 390.31 419.03 Z" fill="#ffffff" id="하동군" stroke="#3884FF" stroke-width="0.5"/>
<path d="M 424.71 393.78 429.29 404.08 436.57 406.52 440.33 412.63 444.4 417.51 437.28 417.21 426.2 427.8 415.85 430.67 401.4 431.7 392.35 425.93 390.31 419.03 395.63 416.78 397.88 409.13 406.01 400 407.52 392.37 411.6 387.26 420.49 394.05 424.71 393.78 Z" fill="#ffffff" id="산청군" stroke="#3884FF" stroke-width="0.5"/>
<path d="M 411.6 387.26 407.52 392.37 406.01 400 397.88 409.13 395.63 416.78 390.31 419.03 381.67 417.34 380.33 413.1 388.44 402.97 382.26 392.09 377.12 389.23 389.13 361.98 404.83 372.41 412.24 375.83 411.6 387.26 Z" fill="#ffffff" id="함양군" stroke="#3884FF" stroke-width="0.5"/>
<path d="M 439.66 352.94 441.36 354.09 435.45 364.06 440.32 372.64 436.22 373.42 427.85 382.25 424.71 393.78 420.49 394.05 411.6 387.26 412.24 375.83 404.83 372.41 389.13 361.98 391.7 359.47 396.75 354.2 411.25 347.65 415.24 344.06 421.35 349.82 431.33 354.3 439.66 352.94 Z" fill="#ffffff" id="거창군" stroke="#3884FF" stroke-width="0.5"/>
<path d="M 450.62 360.87 453.87 364.1 455.39 377.82 468.69 376.33 476.14 381.68 474.46 391.4 478.07 394.34 463.65 394.83 455.32 399.2 453.95 408.9 440.33 412.63 436.57 406.52 429.29 404.08 424.71 393.78 427.85 382.25 436.22 373.42 440.32 372.64 435.45 364.06 441.36 354.09 450.62 360.87 Z" fill="#ffffff" id="합천군" stroke="#3884FF" stroke-width="0.5"/>
<path d="M 290.39 652.27 272.53 660.02 265.9 659.97 250.7 666 230.01 670.23 219.24 669.9 211.36 675.45 197.29 677.65 196.93 670.15 207.52 662.68 209.38 658.17 217.33 654.22 251.63 645.31 273.36 641.88 291.79 649.11 290.39 652.27 Z" fill="#ffffff" id="제주시" stroke="#3884FF" stroke-width="0.5"/>
<path d="M 290.39 652.27 293.29 658.16 281.96 674.33 274.55 674.62 264.65 679.15 235.87 684.85 228.32 682.49 216.02 683.53 212.77 687.67 198.96 680.56 197.29 677.65 211.36 675.45 219.24 669.9 230.01 670.23 250.7 666 265.9 659.97 272.53 660.02 290.39 652.27 Z" fill="#ffffff" id="서귀포시" stroke="#3884FF" stroke-width="0.5"/>
</g>
</svg>